<svg width="146" height="36" viewBox="0 0 146 36" fill="none" xmlns="http://www.w3.org/2000/svg">
<path d="M18.1559 27.865C12.7142 27.865 8.29102 23.4376 8.29102 18.0001C8.29102 12.5627 12.7184 8.13525 18.1559 8.13525C23.5933 8.13525 28.0207 12.5627 28.0207 18.0001C28.0249 23.4418 23.5975 27.865 18.1559 27.865ZM18.1559 13.1014C15.454 13.1014 13.2571 15.2982 13.2571 18.0001C13.2571 20.702 15.454 22.8989 18.1559 22.8989C20.8578 22.8989 23.0546 20.702 23.0546 18.0001C23.0588 15.2982 20.8578 13.1014 18.1559 13.1014Z" fill="#FF9010"/>
<path d="M13.4337 5.68997L15.8031 0C6.89783 1.15735 0 8.78747 0 18H4.9661C4.9661 12.39 8.48445 7.59224 13.4337 5.68997Z" fill="#1C63E5"/>
<path d="M22.7763 5.64788C27.7761 7.5249 31.3492 12.3521 31.3492 18H36.3153C36.3153 8.78747 29.4132 1.15735 20.5121 0V0.0210428L20.5037 0L18.5215 4.75988C19.1864 4.78513 19.8514 4.87351 20.5121 5.02502C21.2907 5.1639 22.0483 5.37433 22.7763 5.64788Z" fill="#FF9010"/>
<path d="M22.8821 30.31L20.5127 36C29.4138 34.8426 36.3158 27.2125 36.3158 18H31.3497C31.3497 23.61 27.8272 28.4078 22.8821 30.31Z" fill="#1C63E5"/>
<path d="M13.5389 30.3521C8.53495 28.4793 4.9661 23.6479 4.9661 18H0C0 27.2125 6.89782 34.8426 15.8031 36V35.979L15.8115 36L17.7938 31.2401C17.1288 31.2149 16.4639 31.1265 15.8031 30.975C15.0203 30.8361 14.267 30.6257 13.5389 30.3521Z" fill="#FF9010"/>
<path d="M57.4254 29.36C56.0254 29.36 54.7054 29.11 53.4654 28.61C52.2454 28.09 51.1854 27.36 50.2854 26.42C49.4054 25.48 48.7454 24.37 48.3054 23.09L52.1154 21.38C52.6754 22.6 53.4454 23.56 54.4254 24.26C55.4254 24.96 56.5254 25.31 57.7254 25.31C58.3654 25.31 58.9154 25.21 59.3754 25.01C59.8354 24.81 60.1954 24.54 60.4554 24.2C60.7154 23.84 60.8454 23.42 60.8454 22.94C60.8454 22.42 60.6854 21.98 60.3654 21.62C60.0454 21.24 59.5454 20.94 58.8654 20.72L54.4854 19.28C52.7054 18.7 51.3654 17.88 50.4654 16.82C49.5654 15.74 49.1154 14.45 49.1154 12.95C49.1154 11.63 49.4354 10.47 50.0754 9.47C50.7354 8.47 51.6454 7.69 52.8054 7.13C53.9854 6.57 55.3354 6.29 56.8554 6.29C58.1954 6.29 59.4354 6.52 60.5754 6.98C61.7154 7.44 62.6954 8.09 63.5154 8.93C64.3554 9.77 64.9854 10.78 65.4054 11.96L61.6254 13.67C61.2054 12.63 60.5754 11.82 59.7354 11.24C58.8954 10.64 57.9354 10.34 56.8554 10.34C56.2354 10.34 55.6854 10.44 55.2054 10.64C54.7254 10.84 54.3554 11.13 54.0954 11.51C53.8354 11.87 53.7054 12.29 53.7054 12.77C53.7054 13.29 53.8754 13.75 54.2154 14.15C54.5554 14.53 55.0654 14.83 55.7454 15.05L60.0354 16.43C61.8354 17.01 63.1754 17.82 64.0554 18.86C64.9554 19.9 65.4054 21.17 65.4054 22.67C65.4054 23.97 65.0654 25.13 64.3854 26.15C63.7054 27.15 62.7654 27.94 61.5654 28.52C60.3854 29.08 59.0054 29.36 57.4254 29.36ZM68.3893 29V6.29H72.8893V15.86L72.3493 15.14C72.7293 14.16 73.3393 13.44 74.1793 12.98C75.0393 12.5 76.0393 12.26 77.1793 12.26C78.4193 12.26 79.4993 12.52 80.4193 13.04C81.3593 13.56 82.0893 14.29 82.6093 15.23C83.1293 16.15 83.3893 17.23 83.3893 18.47V29H78.8893V19.43C78.8893 18.79 78.7593 18.24 78.4993 17.78C78.2593 17.32 77.9093 16.96 77.4493 16.7C77.0093 16.44 76.4893 16.31 75.8893 16.31C75.3093 16.31 74.7893 16.44 74.3293 16.7C73.8693 16.96 73.5093 17.32 73.2493 17.78C73.0093 18.24 72.8893 18.79 72.8893 19.43V29H68.3893ZM94.4782 29.36C92.8582 29.36 91.3782 28.99 90.0382 28.25C88.7182 27.51 87.6582 26.5 86.8582 25.22C86.0782 23.92 85.6882 22.45 85.6882 20.81C85.6882 19.15 86.0782 17.68 86.8582 16.4C87.6582 15.12 88.7182 14.11 90.0382 13.37C91.3782 12.63 92.8582 12.26 94.4782 12.26C96.0982 12.26 97.5682 12.63 98.8882 13.37C100.208 14.11 101.258 15.12 102.038 16.4C102.838 17.68 103.238 19.15 103.238 20.81C103.238 22.45 102.838 23.92 102.038 25.22C101.258 26.5 100.208 27.51 98.8882 28.25C97.5682 28.99 96.0982 29.36 94.4782 29.36ZM94.4782 25.31C95.2982 25.31 96.0082 25.12 96.6082 24.74C97.2282 24.36 97.7082 23.83 98.0482 23.15C98.4082 22.47 98.5882 21.69 98.5882 20.81C98.5882 19.93 98.4082 19.16 98.0482 18.5C97.7082 17.82 97.2282 17.29 96.6082 16.91C96.0082 16.51 95.2982 16.31 94.4782 16.31C93.6582 16.31 92.9382 16.51 92.3182 16.91C91.6982 17.29 91.2082 17.82 90.8482 18.5C90.5082 19.16 90.3382 19.93 90.3382 20.81C90.3382 21.69 90.5082 22.47 90.8482 23.15C91.2082 23.83 91.6982 24.36 92.3182 24.74C92.9382 25.12 93.6582 25.31 94.4782 25.31ZM105.889 35V12.62H110.089V15.74L109.699 14.84C110.239 14.02 110.969 13.39 111.889 12.95C112.829 12.49 113.899 12.26 115.099 12.26C116.659 12.26 118.069 12.64 119.329 13.4C120.589 14.16 121.589 15.19 122.329 16.49C123.069 17.77 123.439 19.21 123.439 20.81C123.439 22.39 123.069 23.83 122.329 25.13C121.609 26.43 120.619 27.46 119.359 28.22C118.099 28.98 116.669 29.36 115.069 29.36C113.949 29.36 112.909 29.16 111.949 28.76C111.009 28.34 110.249 27.73 109.669 26.93L110.389 26V35H105.889ZM114.529 25.31C115.369 25.31 116.109 25.12 116.749 24.74C117.389 24.36 117.889 23.83 118.249 23.15C118.609 22.47 118.789 21.69 118.789 20.81C118.789 19.93 118.609 19.16 118.249 18.5C117.889 17.82 117.389 17.29 116.749 16.91C116.109 16.51 115.369 16.31 114.529 16.31C113.729 16.31 113.009 16.5 112.369 16.88C111.749 17.26 111.259 17.79 110.899 18.47C110.559 19.15 110.389 19.93 110.389 20.81C110.389 21.69 110.559 22.47 110.899 23.15C111.259 23.83 111.749 24.36 112.369 24.74C113.009 25.12 113.729 25.31 114.529 25.31Z" fill="#04121E"/>
<path d="M124.755 29L132.075 17.81L124.755 6.65H130.095L135.975 15.59H133.365L139.215 6.65H144.555L137.265 17.81L144.555 29H139.215L133.365 20.03L135.975 20.06L130.095 29H124.755Z" fill="#FF9010"/>
</svg>
