<svg width="20" height="18" viewBox="0 0 20 18" fill="none" xmlns="http://www.w3.org/2000/svg">
<path d="M9.92795 17.9997C7.96174 17.9997 5.9963 17.9997 4.03008 17.9997C3.45644 17.9997 3.36018 17.9026 3.36018 17.3189C3.35941 14.5508 3.3563 11.7835 3.36484 9.01545C3.36562 8.7492 3.29187 8.55746 3.10247 8.36884C2.15779 7.42959 1.2263 6.47714 0.290151 5.52935C-0.103403 5.13114 -0.0995213 4.99297 0.319649 4.61804C1.54456 3.52354 2.76791 2.42749 4.00136 1.34308C4.17058 1.19405 4.38249 1.07606 4.59441 0.995328C5.42654 0.677845 6.26643 0.378216 7.10477 0.077035C7.57439 -0.0914092 7.74672 0.0149358 7.83288 0.497757C7.86936 0.700356 7.91206 0.904508 7.98425 1.09624C8.32114 1.98503 9.02984 2.46863 9.94814 2.45311C10.8944 2.43681 11.5845 1.92915 11.8895 1.01085C11.9539 0.816016 11.9896 0.610312 12.0285 0.407714C12.0991 0.0444329 12.2815 -0.0766606 12.6363 0.0467616C13.5631 0.368901 14.4876 0.698804 15.409 1.03647C15.5495 1.08848 15.6822 1.18473 15.7956 1.28487C17.0655 2.40576 18.3323 3.53053 19.5976 4.65763C19.9609 4.98132 19.9647 5.142 19.624 5.48821C18.6715 6.45618 17.7206 7.4257 16.7573 8.38359C16.5765 8.56367 16.5097 8.74609 16.5105 8.99682C16.5175 11.6873 16.5151 14.3769 16.5151 17.0674C16.5151 17.1582 16.5151 17.2483 16.5151 17.3391C16.5113 17.8949 16.4103 17.9997 15.8639 17.9997C14.1181 18.0004 12.3716 17.9997 10.6258 17.9997C10.3929 17.9997 10.1601 17.9997 9.92718 17.9997H9.92795ZM4.12788 17.1792H15.7109V16.6971C15.7109 13.1792 15.7109 9.66205 15.7109 6.14413C15.7109 6.0145 15.7047 5.88487 15.7179 5.75679C15.7459 5.49131 15.8802 5.34926 16.0936 5.34228C16.3218 5.33451 16.4802 5.4851 16.4903 5.76998C16.5066 6.20934 16.4957 6.64946 16.5004 7.08882C16.5019 7.19594 16.519 7.30306 16.5229 7.34109C17.2898 6.60211 18.0668 5.85304 18.8594 5.09C18.7647 5.00073 18.6746 4.91146 18.5807 4.82685C17.7245 4.0576 16.8497 3.30852 16.0176 2.51365C15.4827 2.00289 14.9021 1.61477 14.1864 1.41217C13.7082 1.27633 13.2456 1.08227 12.7698 0.91227C12.3498 2.31882 11.4571 3.17501 10.0095 3.21149C8.47173 3.24953 7.52394 2.37859 7.07993 0.910717C6.29515 1.1956 5.53055 1.46883 4.77061 1.75216C4.66582 1.79097 4.57112 1.86937 4.48573 1.94545C3.37571 2.93515 2.26879 3.92796 1.16187 4.92155C1.09899 4.97822 1.04854 5.04963 0.995754 5.11095C1.79218 5.8771 2.56919 6.62462 3.34699 7.37292C3.34699 7.00188 3.34699 6.59358 3.34699 6.18527C3.34699 6.03002 3.3369 5.87322 3.35553 5.7203C3.38502 5.47035 3.54726 5.32985 3.7646 5.3415C3.9672 5.35237 4.09916 5.48821 4.12323 5.72496C4.13487 5.84062 4.12866 5.95783 4.12866 6.07427C4.12866 9.61781 4.12866 13.1613 4.12866 16.7049V17.1792H4.12788Z" fill="black"/>
</svg>
