<svg width="25" height="18" viewBox="0 0 25 18" fill="none" xmlns="http://www.w3.org/2000/svg">
<path d="M14.0135 1.23277C14.3758 0.307032 14.9135 -0.076229 15.7611 0.0124358C16.6697 0.106821 17.1101 0.547285 17.2894 1.54357C17.7994 1.75236 18.3219 1.94018 18.8205 2.17662C21.5072 3.45129 23.2995 5.46198 23.8811 8.43559C24.1642 9.88283 24.1604 11.3425 23.9021 12.7935C23.7247 13.7888 23.0135 14.2913 21.9676 14.2036C21.2564 14.1435 20.5452 14.0749 19.8349 13.9957C19.5413 13.9633 19.3516 14.0482 19.1494 14.2865C17.4801 16.2543 15.4265 17.5909 12.8266 17.9265C12.0305 18.0295 11.2096 18.0095 10.4059 17.9561C9.58126 17.9017 8.85288 17.5175 8.19314 17.0294C6.54378 15.8091 4.66752 15.4258 2.66255 15.4964C2.13438 15.5145 1.62813 15.6155 1.14762 15.8567C0.741482 16.0608 0.362034 15.9607 0.140849 15.6308C-0.0831962 15.2961 -0.0469676 14.9062 0.300064 14.6078C0.744342 14.2255 1.21341 13.8689 1.69105 13.5286C2.59581 12.8841 3.50916 12.2501 4.43108 11.6304C4.70375 11.4473 4.83436 11.2385 4.87822 10.9058C5.06889 9.43569 5.47122 8.02182 6.04516 6.65276C7.08054 4.18063 8.94631 2.65522 11.4604 1.87916C12.2908 1.6227 13.1469 1.45014 14.0135 1.23468V1.23277ZM16.9776 12.9832C17.194 11.9364 17.4324 10.9506 17.5973 9.95338C17.8547 8.39555 17.9558 6.82723 17.6412 5.26273C17.4076 4.09864 16.949 3.05755 15.989 2.28912C15.702 2.05935 15.4284 2.0031 15.0718 2.10893C13.8267 2.47789 12.8056 3.17863 11.9933 4.17301C10.3068 6.23804 9.64896 8.69777 9.27141 11.3081C11.8274 11.884 14.3081 12.6152 16.9776 12.9832ZM1.28586 14.8195C1.43936 14.8347 1.47273 14.8461 1.50133 14.8395C3.11064 14.4762 4.68659 14.6879 6.24728 15.1245C7.0996 15.3629 7.84896 15.8081 8.55733 16.3239C9.29525 16.8607 10.1075 17.1896 11.0247 17.2163C13.7971 17.2954 16.1386 16.3096 18.0721 14.3351C18.1636 14.2417 18.2342 14.1282 18.3371 13.9948C17.4772 13.8727 16.6687 13.8051 15.8822 13.6373C13.9297 13.2197 11.9876 12.7516 10.0398 12.314C8.7051 12.0146 7.35797 11.7972 5.98319 11.8992C5.69431 11.9212 5.37207 11.985 5.13754 12.1395C4.06498 12.8459 3.01626 13.5905 1.96086 14.3237C1.75588 14.4657 1.55949 14.6192 1.28586 14.8204V14.8195ZM17.3361 2.41783C17.419 2.58276 17.44 2.64092 17.4734 2.68954C18.0702 3.56093 18.3686 4.54006 18.5107 5.57353C18.7585 7.37257 18.6051 9.15444 18.2609 10.9249C18.1226 11.6371 17.9472 12.3426 17.7909 13.0443C17.8414 13.0709 17.869 13.0967 17.8967 13.0986C19.321 13.2054 20.7454 13.3207 22.1707 13.4094C22.7446 13.4447 22.9878 13.2464 23.0936 12.6734C23.3929 11.0584 23.3624 9.44427 22.9229 7.85975C22.2918 5.58688 20.7921 4.04525 18.7166 3.01941C18.2981 2.81253 17.8605 2.64473 17.3361 2.41687V2.41783ZM8.47057 11.1461C8.99303 7.88549 9.88921 4.77269 12.5167 2.4388C11.9066 2.60088 11.3193 2.78393 10.753 3.0175C8.98921 3.74589 7.7031 4.97576 6.91655 6.72617C6.4656 7.72913 6.12143 8.7626 5.90692 9.83992C5.82493 10.2499 5.76296 10.6646 5.68001 11.1461H8.47057ZM14.9517 1.16222C15.4513 1.19082 15.9117 1.21751 16.376 1.24421C16.0099 0.705546 15.4036 0.660737 14.9517 1.16222Z" fill="black"/>
</svg>
