<svg width="40" height="40" viewBox="0 0 40 40" fill="none" xmlns="http://www.w3.org/2000/svg">
<path d="M19.9975 30.961C14.0038 30.961 9.13184 26.0416 9.13184 20C9.13184 13.9584 14.0084 9.03906 19.9975 9.03906C25.9866 9.03906 30.8632 13.9584 30.8632 20C30.8678 26.0463 25.9913 30.961 19.9975 30.961ZM19.9975 14.5569C17.0215 14.5569 14.6018 16.9979 14.6018 20C14.6018 23.0021 17.0215 25.4431 19.9975 25.4431C22.9735 25.4431 25.3933 23.0021 25.3933 20C25.3979 16.9979 22.9735 14.5569 19.9975 14.5569Z" fill="#FF9010"/>
<path d="M14.7966 6.32219L17.4064 0C7.59764 1.28595 0 9.76385 0 20H5.46993C5.46993 13.7667 9.34523 8.43582 14.7966 6.32219Z" fill="#1C63E5"/>
<path d="M25.0869 6.27543C30.5939 8.361 34.5295 13.7246 34.5295 20H39.9994C39.9994 9.76385 32.3971 1.28595 22.593 0V0.0233809L22.5837 0L20.4004 5.28875C21.1328 5.31681 21.8652 5.41501 22.593 5.58335C23.4506 5.73767 24.285 5.97148 25.0869 6.27543Z" fill="#FF9010"/>
<path d="M25.2036 33.6778L22.5938 40C32.3979 38.7141 40.0002 30.2361 40.0002 20H34.5302C34.5302 26.2333 30.6503 31.5642 25.2036 33.6778Z" fill="#1C63E5"/>
<path d="M14.9125 33.7246C9.40086 31.6437 5.46993 26.2754 5.46993 20H0C0 30.2361 7.59763 38.7141 17.4064 40V39.9766L17.4157 40L19.599 34.7112C18.8666 34.6832 18.1342 34.585 17.4064 34.4166C16.5442 34.2623 15.7144 34.0285 14.9125 33.7246Z" fill="#FF9010"/>
</svg>
