<svg width="24" height="20" viewBox="0 0 24 20" fill="none" xmlns="http://www.w3.org/2000/svg">
<path d="M11.54 0.00722409C13.8652 0.00722409 16.1903 0.0135253 18.5164 2.2659e-05C18.8657 -0.0017777 19.0988 0.103543 19.3203 0.374497C20.4698 1.77878 21.6373 3.16865 22.8003 4.56213C23.1451 4.97531 23.1514 5.01762 22.8246 5.44611C20.4509 8.55893 18.0762 11.6699 15.7024 14.7819C14.4926 16.3671 13.2828 17.9532 12.0729 19.5393C12.027 19.5987 11.9838 19.6599 11.9361 19.7175C11.6237 20.0956 11.4221 20.0983 11.116 19.7004C10.3104 18.6553 9.5128 17.6039 8.71254 16.5543C5.91749 12.8942 3.12423 9.23496 0.330975 5.57483C0.276064 5.50372 0.222053 5.4317 0.169843 5.35879C-0.0588029 5.04013 -0.0597031 4.94471 0.186046 4.65035C1.08803 3.56653 1.99181 2.48452 2.89468 1.4016C3.18274 1.05593 3.4852 0.721066 3.75436 0.360994C3.9533 0.0936413 4.18554 -0.00087752 4.51861 2.2659e-05C6.85907 0.0126252 9.19954 0.00722409 11.54 0.00722409ZM11.4752 18.1431C11.5112 18.1458 11.5472 18.1485 11.5832 18.1512C12.92 13.9195 14.2558 9.68865 15.5989 5.4362H7.46219C8.80886 9.69855 10.142 13.9213 11.4752 18.144V18.1431ZM1.20325 5.4218C4.29446 9.47171 7.32537 13.4433 10.3572 17.4149C10.3788 17.4005 10.4013 17.387 10.4229 17.3726C9.16353 13.3848 7.90328 9.39789 6.64753 5.4209H1.20325V5.4218ZM16.4109 5.4272C15.1497 9.4213 13.8904 13.4091 12.631 17.3978C12.6526 17.4077 12.6733 17.4185 12.6949 17.4284C15.733 13.4469 18.7711 9.46541 21.8525 5.4272H16.4109ZM7.96899 4.57293H14.9625C13.8166 3.4288 12.6292 2.24237 11.4635 1.07664C10.341 2.19916 9.16893 3.37209 7.96989 4.57293H7.96899ZM6.94279 4.27767C8.10942 3.10744 9.26345 1.94981 10.3914 0.818285H4.92549C5.62493 2.01822 6.29916 3.17405 6.94189 4.27767H6.94279ZM12.7138 0.824587C13.8256 1.94261 14.9769 3.09934 16.1291 4.25787C16.7664 3.16505 17.4344 2.01822 18.1302 0.824587H12.7138ZM1.24826 4.58103H6.22445C5.53851 3.4036 4.87238 2.26037 4.17744 1.06764C3.19714 2.24327 2.24476 3.3856 1.24826 4.58103ZM21.8119 4.57923C20.8046 3.37299 19.8541 2.23517 18.8801 1.06854C18.1806 2.26937 17.5208 3.4036 16.8358 4.57923H21.8119Z" fill="black"/>
</svg>
