<svg width="20" height="22" viewBox="0 0 20 22" fill="none" xmlns="http://www.w3.org/2000/svg">
<path d="M6.80437 19.1449C6.66265 18.4818 6.50374 17.9029 5.8836 17.513C3.97851 16.3139 2.62141 14.6201 1.63623 12.6154C0.751536 10.8134 0.236182 8.90313 0.0162977 6.91042C-0.0386734 6.41568 0.0266047 6.35212 0.506743 6.16574C0.998047 5.97506 1.47131 5.73799 1.95403 5.52498C2.14299 5.44166 2.21342 5.3197 2.22115 5.0981C2.2452 4.41525 2.78547 3.9583 3.46058 4.05966C3.68304 4.09316 3.799 4.0399 3.93299 3.8853C4.57374 3.14319 5.12002 2.33666 5.47218 1.42276C5.65513 0.94606 5.97894 0.681512 6.41785 0.500279C7.20806 0.17217 8.04551 0.0605105 8.88897 0.0184232C10.0949 -0.0408425 11.2914 0.0295892 12.4484 0.426412C13.0006 0.615375 13.4095 0.916857 13.6285 1.50694C13.954 2.38476 14.4952 3.14662 15.1033 3.85867C15.2424 4.02186 15.3635 4.09659 15.6058 4.05966C16.2757 3.95916 16.8082 4.42126 16.8357 5.1084C16.8435 5.31025 16.901 5.43136 17.0745 5.50866C17.583 5.73456 18.0855 5.97506 18.6008 6.1812C19.0131 6.34611 19.0921 6.41225 19.044 6.8357C18.6884 9.98537 17.6955 12.8825 15.6401 15.3519C14.9306 16.2048 14.1147 16.9487 13.1638 17.5207C12.536 17.8986 12.3848 18.4887 12.2474 19.1664C12.6502 19.2239 13.0178 19.2549 13.376 19.3313C13.9059 19.4447 14.4333 19.5744 14.9521 19.729C15.1514 19.7883 15.3412 19.9145 15.5053 20.0477C15.8394 20.3199 15.8505 20.7503 15.4984 20.9993C15.2124 21.202 14.8817 21.3876 14.545 21.4614C13.723 21.6418 12.8916 21.8084 12.055 21.8815C9.92569 22.0687 7.79385 22.0472 5.67574 21.7226C5.14235 21.641 4.62099 21.4743 4.10134 21.3206C3.91495 21.2656 3.73715 21.1497 3.58169 21.0277C3.2072 20.7331 3.19088 20.2744 3.59543 20.0245C3.96477 19.796 4.38478 19.6182 4.80651 19.5108C5.44126 19.3502 6.09662 19.2712 6.80523 19.1466L6.80437 19.1449ZM9.53403 10.0429C8.55743 11.0238 6.97529 10.7893 6.56645 9.1462C5.5177 9.2132 5.07106 8.8722 4.72234 7.73671C3.7758 7.59327 3.40475 7.32271 3.26131 6.26623C3.08867 6.20181 2.91946 6.12794 2.74252 6.07813C2.65835 6.05408 2.54583 6.04291 2.47196 6.07813C1.90851 6.34869 1.35192 6.63299 0.775586 6.92073C0.775586 6.95766 0.769573 7.01435 0.775586 7.07018C1.02639 9.14964 1.61647 11.1243 2.64288 12.9564C3.94845 15.2858 5.81489 16.9813 8.32896 17.9347C9.11058 18.231 9.8879 18.2439 10.673 17.9519C12.1709 17.3944 13.4894 16.5596 14.5982 15.4069C16.353 13.5834 17.3743 11.3734 17.9463 8.93834C18.1052 8.26323 18.1997 7.57265 18.3139 6.93963C17.6895 6.62784 17.1441 6.34955 16.5918 6.08414C16.5162 6.04721 16.4046 6.04721 16.3212 6.07126C16.1331 6.12623 15.9528 6.20697 15.7595 6.28083C15.7449 7.23767 15.1978 7.66714 14.2985 7.72554C14.2418 8.19451 14.0734 8.57588 13.7101 8.85503C13.3382 9.14191 12.9113 9.19001 12.469 9.13761C12.1864 10.6261 10.5776 11.1123 9.53145 10.0412L9.53403 10.0429ZM13.0427 2.25592C11.5473 3.0822 7.99312 3.24797 5.98753 2.25764C5.52629 2.91385 5.09253 3.58553 4.59951 4.20997C4.36503 4.5063 4.21128 4.75281 4.4492 5.12472C5.20162 5.11871 5.68004 5.50866 5.87072 6.26795C6.80523 6.12966 7.39015 6.5471 7.69507 7.42148C8.4243 7.19816 9.02297 7.43093 9.54261 7.92567C10.0605 7.36565 10.6721 7.22823 11.3756 7.41203C11.6659 6.50329 12.2903 6.14856 13.1939 6.25507C13.3786 5.47774 13.8836 5.12215 14.7099 5.11785C14.6901 4.87821 14.7468 4.61882 14.6446 4.46765C14.1421 3.72554 13.5976 3.01177 13.0427 2.2542V2.25592ZM4.20097 20.4771C4.20097 20.5158 4.20097 20.5536 4.20183 20.5922C4.40368 20.6583 4.60209 20.7374 4.80651 20.7898C6.34484 21.1797 7.91667 21.2441 9.49108 21.245C11.0947 21.2467 12.6957 21.184 14.2615 20.7863C14.4703 20.7331 14.6687 20.6412 14.8722 20.5664C14.8662 20.5329 14.8602 20.5003 14.8542 20.4668C14.0356 20.1275 13.1673 20.0262 12.2431 19.9326C12.2731 20.125 12.2963 20.2753 12.3195 20.4256C12.3522 20.636 12.2834 20.8018 12.0721 20.8619C11.8394 20.9281 11.6745 20.8164 11.6126 20.5931C11.5559 20.3878 11.501 20.1722 11.5035 19.9618C11.5113 19.4413 11.5516 18.9216 11.5817 18.3616C10.2177 19.0968 8.83229 19.0857 7.39015 18.3212C7.44512 18.566 7.50783 18.7155 7.50697 18.8632C7.50095 19.4309 7.49065 19.9996 7.44684 20.5647C7.42966 20.7889 7.25015 20.9195 7.01223 20.8688C6.77431 20.8181 6.70216 20.642 6.73737 20.4127C6.76056 20.2641 6.77946 20.1147 6.80609 19.9265C5.88274 20.0408 5.01008 20.1138 4.20097 20.4763V20.4771ZM12.8495 1.42362C12.6038 1.30509 12.4114 1.18999 12.2036 1.11527C11.33 0.80262 10.4179 0.743354 9.50139 0.745072C8.59866 0.74679 7.70108 0.807774 6.84216 1.1187C6.63001 1.19515 6.43675 1.32141 6.20999 1.43736C7.23297 2.42513 11.8729 2.41482 12.8495 1.42276V1.42362ZM8.25509 9.88488C8.74983 9.88058 9.15266 9.48204 9.16039 8.9916C9.16813 8.48655 8.74811 8.06825 8.23791 8.07169C7.74231 8.07512 7.34463 8.47023 7.33776 8.96669C7.33003 9.48118 7.73888 9.88917 8.25595 9.88488H8.25509ZM10.8319 9.88488C11.3292 9.87543 11.7217 9.47603 11.7217 8.97957C11.7217 8.46765 11.3034 8.06052 10.7906 8.07169C10.2993 8.08285 9.89735 8.49084 9.89649 8.97871C9.89563 9.48462 10.3191 9.89432 10.8327 9.88402L10.8319 9.88488ZM6.95468 7.70922C6.96155 7.30725 6.63001 6.96711 6.23147 6.96625C5.83722 6.96539 5.49451 7.31154 5.49966 7.70493C5.50482 8.08715 5.82262 8.40924 6.20656 8.42127C6.61541 8.43329 6.94695 8.11807 6.95468 7.70922ZM13.5572 7.70922C13.5641 7.31584 13.2231 6.96797 12.8289 6.96711C12.4484 6.96711 12.1194 7.28234 12.1031 7.6637C12.0859 8.07169 12.3977 8.40924 12.8048 8.42127C13.2068 8.43415 13.5495 8.10862 13.5572 7.70836V7.70922ZM4.59608 6.95852C4.87608 6.95079 5.13806 6.67594 5.12947 6.40022C5.12088 6.12279 4.84259 5.85996 4.56601 5.86855C4.28515 5.878 4.02747 6.15114 4.03606 6.43029C4.04551 6.71545 4.31091 6.96711 4.59522 6.95852H4.59608ZM15.0217 6.40795C15.0182 6.1288 14.7468 5.86254 14.4694 5.86683C14.1902 5.87113 13.924 6.14426 13.9291 6.4217C13.9343 6.70171 14.2031 6.96196 14.484 6.95852C14.7692 6.95423 15.026 6.6914 15.0217 6.40795ZM3.80243 5.16423C3.57825 4.98815 3.4623 4.83441 3.318 4.79833C3.10756 4.74594 2.95897 4.90226 2.94523 5.11098C2.93148 5.31884 3.0629 5.49492 3.27248 5.47516C3.42021 5.46056 3.55506 5.31626 3.80243 5.16423ZM15.7595 5.64437C15.9261 5.40473 16.0799 5.27761 16.1022 5.13073C16.1331 4.92545 15.9759 4.78717 15.7578 4.78717C15.5379 4.78717 15.3842 4.92803 15.4168 5.13245C15.44 5.27933 15.5929 5.40559 15.7604 5.64437H15.7595Z" fill="black"/>
</svg>
