<svg width="20" height="20" viewBox="0 0 20 20" fill="none" xmlns="http://www.w3.org/2000/svg">
<path d="M15.7694 14.7038C15.9145 15.3669 16.0725 16.0096 16.193 16.6591C16.2754 17.1032 16.2958 17.5574 16.362 18.0049C16.4036 18.2893 16.2771 18.4557 16.0495 18.5916C15.3313 19.0195 14.5391 19.18 13.7266 19.1188C12.9471 19.0602 12.2696 19.2309 11.5768 19.5909C10.5112 20.1445 9.37689 20.1351 8.31473 19.5697C7.64993 19.2156 6.99447 19.0594 6.24476 19.1188C5.46024 19.1808 4.6978 19.0297 3.98884 18.6535C3.68234 18.4905 3.50658 18.291 3.57875 17.9132C3.75705 16.9852 3.91497 16.0529 4.08394 15.1232C4.10856 14.9874 4.15101 14.8549 4.19176 14.6927C2.99716 14.4194 1.82887 14.1511 0.659731 13.8828C0.604543 13.87 0.549355 13.8581 0.494167 13.8454C-0.0203548 13.7223 -0.0628072 13.6586 0.0535122 13.15C0.710674 10.2853 1.36868 7.42066 2.02585 4.55598C2.09547 4.25287 2.16509 3.94976 2.23641 3.6475C2.49112 2.56836 3.21536 1.90781 4.31318 1.75413C4.74704 1.693 5.18005 1.61998 5.61477 1.57243C5.83976 1.54781 5.97136 1.45696 6.0325 1.23282C6.11485 0.933102 6.22947 0.642728 6.31693 0.344713C6.3891 0.105282 6.53174 0 6.7822 0C8.90482 0.00339618 11.0266 0.00339618 13.1492 0C13.3988 0 13.5432 0.104433 13.6136 0.343015C13.7019 0.64103 13.8157 0.931404 13.8981 1.23112C13.9592 1.45611 14.0916 1.54442 14.3158 1.56989C14.7649 1.62083 15.2124 1.69045 15.6598 1.75922C16.739 1.92649 17.4496 2.5811 17.695 3.6458C18.4252 6.81275 19.1511 9.98054 19.8779 13.1483C19.9934 13.6518 19.9475 13.7274 19.4364 13.8462C18.28 14.1154 17.1227 14.3777 15.9663 14.6443C15.9001 14.6596 15.8356 14.6843 15.7702 14.7038H15.7694ZM19.2836 13.2672C19.1698 12.7595 19.0688 12.3052 18.9652 11.8518C18.3462 9.15272 17.7264 6.45445 17.1083 3.75533C16.9529 3.07694 16.5615 2.59214 15.8831 2.42912C15.2557 2.27799 14.6087 2.21261 13.9702 2.10903C13.8947 2.24827 13.8403 2.34507 13.7885 2.4444C13.2307 3.52864 12.481 4.45664 11.5335 5.22418C11.1149 5.56295 11.0419 5.55446 10.7269 5.13248C10.6055 4.96947 10.4832 4.8073 10.3609 4.64513C10.3295 4.65702 10.299 4.66975 10.2675 4.68164C10.2675 4.85994 10.2675 5.03909 10.2675 5.21739C10.2675 6.13691 10.2675 7.05642 10.2658 7.97594C10.2658 8.18735 10.231 8.39877 9.96273 8.39537C9.69443 8.39197 9.66896 8.17801 9.66641 7.9683C9.66557 7.86896 9.66556 7.77047 9.66556 7.67113C9.66556 6.77963 9.66641 5.88898 9.66387 4.99749C9.66387 4.88626 9.64009 4.77504 9.61717 4.57636C9.41085 4.8557 9.2733 5.05267 9.12472 5.24031C8.90652 5.5154 8.79275 5.54512 8.53039 5.31843C8.12455 4.96862 7.69748 4.6256 7.36465 4.21127C6.84503 3.56599 6.39674 2.86298 5.88052 2.13196C5.45769 2.19309 4.9576 2.27035 4.45497 2.33742C3.5363 2.46054 3.02517 2.90459 2.81716 3.80458C2.1133 6.84671 1.41708 9.88969 0.720014 12.9327C0.69624 13.0371 0.691146 13.1466 0.674165 13.2714C1.92566 13.5576 3.14659 13.8361 4.34714 14.1103C4.71647 13.2859 5.07392 12.5039 5.41269 11.7151C5.45599 11.6141 5.42543 11.4706 5.40165 11.3526C5.12656 9.98224 4.83619 8.61442 4.57299 7.24152C4.48808 6.79831 4.45157 6.34407 4.43374 5.89323C4.4295 5.7888 4.57893 5.62833 4.691 5.58927C4.75808 5.5655 4.90072 5.71833 4.98732 5.81172C5.02723 5.85502 5.01789 5.94587 5.02807 6.01549C5.17496 7.00803 5.29722 8.00396 5.47467 8.9914C5.61646 9.77847 5.82448 10.5536 5.99938 11.3169H13.9108C14.3863 9.60441 14.7072 7.88594 14.8948 6.14115C14.9212 5.89917 14.8796 5.55191 15.2497 5.58503C15.6335 5.61984 15.5062 5.96285 15.4832 6.19634C15.3143 7.91566 14.9857 9.60696 14.5493 11.2779C14.5119 11.4197 14.4737 11.598 14.5255 11.7211C14.8592 12.5124 15.2183 13.2927 15.586 14.1128C16.7908 13.8369 18.0117 13.5576 19.2819 13.2672H19.2836ZM9.96782 11.9393C8.78001 11.9393 7.59135 11.9554 6.40438 11.9291C6.05967 11.9215 5.89155 12.0352 5.77693 12.3417C5.64278 12.6983 5.46024 13.0354 5.31675 13.3886C4.78864 14.6893 4.40487 16.0308 4.21808 17.425C4.12893 18.0881 4.15271 18.1891 4.81072 18.3394C5.34052 18.4608 5.90004 18.5194 6.44343 18.5033C7.1439 18.4837 7.78153 18.5967 8.39454 18.9439C9.43547 19.534 10.5019 19.534 11.5428 18.9448C12.1567 18.5975 12.7943 18.4846 13.4939 18.5033C14.0373 18.5185 14.6045 18.4803 15.1241 18.3343C15.9086 18.1144 15.7965 18.1271 15.7108 17.425C15.4883 15.6131 14.9033 13.9082 14.1256 12.2628C14.0033 12.003 13.8505 11.9291 13.5737 11.9325C12.3715 11.9478 11.1692 11.9393 9.96782 11.9393ZM12.3995 0.640181H7.61682C8.39285 1.43319 9.20453 2.26271 10.0077 3.08289C10.7889 2.28563 11.5937 1.46291 12.3995 0.640181ZM9.50934 3.71967C8.57454 2.76619 7.67965 1.85262 6.78475 0.939894C6.77796 0.946687 6.75249 0.961969 6.74485 0.984045C6.68711 1.14282 6.61834 1.29989 6.58268 1.4646C6.55126 1.60724 6.50202 1.78385 6.55636 1.90186C7.06324 3.00562 7.78663 3.94637 8.75369 4.74023C9.02793 4.37004 9.28689 4.02023 9.50934 3.72052V3.71967ZM11.1616 4.7139C11.9393 4.19429 13.0558 2.78232 13.381 1.90866C13.4124 1.82375 13.4268 1.71507 13.4039 1.63017C13.3377 1.38989 13.2477 1.1564 13.1602 0.89914C12.239 1.84668 11.3399 2.77129 10.4238 3.71458C10.6454 4.01514 10.9043 4.36495 11.1616 4.7139Z" fill="black"/>
</svg>
