<svg width="24" height="20" viewBox="0 0 24 20" fill="none" xmlns="http://www.w3.org/2000/svg">
<path d="M6.23493 13.6643C6.08735 13.5102 6.01264 13.4217 5.92686 13.3442C4.63001 12.1663 3.33224 10.9903 2.0354 9.81339C0.42587 8.35237 0.604809 6.15529 2.41818 4.96636C2.5593 4.87413 2.66076 4.66844 2.70965 4.49503C3.39312 2.0812 4.95469 0.607264 7.40726 0.0870495C7.69042 0.0270957 7.9865 0.0114155 8.27705 0.0012695C8.69396 -0.012566 8.80648 0.0824377 8.92824 0.49658C8.9928 0.717025 9.04814 0.94116 9.11271 1.16161C9.54069 2.61987 10.8265 3.40295 12.3152 3.08013C12.9756 2.93716 13.5926 2.95376 14.1783 3.31717C14.6432 3.60587 14.9208 4.03477 15.1136 4.53562C15.9714 6.76959 16.8495 8.9971 17.6898 11.2375C18.0873 12.2982 18.7874 12.9863 19.8813 13.2815C20.2217 13.3737 20.5593 13.4798 20.8895 13.6043C22.5322 14.226 23.6243 15.8291 23.6012 17.5686C23.5837 18.8304 22.6383 19.8626 21.3848 19.9797C21.1865 19.9982 20.9863 20 20.7862 20C16.2998 19.9954 11.8125 19.9899 7.32609 19.9834C7.20341 19.9834 7.07982 19.9852 6.95806 19.9751C6.70995 19.9539 6.5596 19.8165 6.53839 19.5674C6.51441 19.2916 6.67213 19.1339 6.92486 19.0776C7.05768 19.0481 7.19972 19.0573 7.33808 19.0573C8.87474 19.0564 10.4114 19.0573 11.9481 19.0555C12.0938 19.0555 12.2395 19.0426 12.4674 19.0324C10.5866 17.7596 9.11548 16.1427 7.45522 14.7434C7.32332 14.6318 7.09273 14.5977 6.90733 14.5968C5.29412 14.5857 3.6809 14.5903 2.06768 14.5894C1.92933 14.5894 1.7882 14.5977 1.65446 14.5691C1.39804 14.5138 1.24862 14.3505 1.27352 14.0766C1.29566 13.8266 1.44785 13.6919 1.69504 13.6726C1.81772 13.6624 1.94039 13.6643 2.06307 13.6643C3.2769 13.6643 4.49074 13.6643 5.70457 13.6643C5.85122 13.6643 5.99788 13.6643 6.23585 13.6643H6.23493ZM3.08136 5.67566C2.43017 5.99388 2.05016 6.46336 1.91641 7.12654C1.75408 7.92716 2.03263 8.56728 2.62571 9.10317C5.63447 11.8251 8.63123 14.5599 11.6492 17.2716C12.9424 18.4338 14.4836 19.0306 16.2278 19.0527C17.8106 19.0721 19.3934 19.0684 20.9771 19.0721C21.1302 19.0721 21.2852 19.0666 21.4364 19.0417C21.9917 18.9522 22.4234 18.551 22.5341 18.0123C21.5001 18.0123 20.4716 18.0224 19.4423 18.0105C16.618 17.9773 14.1101 17.066 11.9545 15.2369C11.4297 14.7914 10.9639 14.273 10.4926 13.7685C10.2657 13.5259 10.2924 13.2538 10.5119 13.0813C10.749 12.895 10.9704 12.9541 11.1687 13.1514C11.2554 13.2381 11.3301 13.3378 11.4186 13.4226C11.8955 13.8783 12.3705 14.3376 12.8594 14.7813C12.947 14.8606 13.1241 14.9399 13.2126 14.9039C13.802 14.6641 14.3794 14.392 14.9836 14.1208C14.8664 13.9078 14.788 13.7602 14.7041 13.6154C13.4654 11.4755 12.2303 9.33469 10.9842 7.19941C10.6033 6.54638 10.452 5.85368 10.618 5.11948C10.701 4.75237 10.879 4.40649 11.0192 4.03846C9.36636 3.6566 8.43662 2.55991 8.08058 0.938393C7.21448 1.00665 6.47198 1.25107 5.75714 1.72425C6.76068 2.51656 7.3639 3.4998 7.50872 4.73762C7.65445 5.97728 7.24584 7.05737 6.49042 8.02954C7.03739 8.62723 7.55576 9.19172 8.07228 9.7599C8.18573 9.88442 8.30011 10.0108 8.39234 10.151C8.52147 10.3484 8.48458 10.5734 8.30103 10.6804C8.15622 10.7653 7.93762 10.7625 7.76052 10.7376C7.66091 10.7228 7.5742 10.5882 7.49211 10.4978C6.76529 9.70455 6.04215 8.90855 5.31625 8.1144C4.58113 7.31009 3.84323 6.50764 3.08228 5.67751L3.08136 5.67566ZM14.4384 5.4008C14.3416 5.13792 14.2669 4.88981 14.159 4.65645C13.8232 3.92686 13.0263 3.69811 12.3419 4.12609C11.4712 4.67028 11.2268 5.75314 11.7811 6.71794C13.0595 8.94084 14.349 11.1582 15.6366 13.3756C15.6864 13.4614 15.7584 13.5351 15.8395 13.6394C16.3588 13.2981 16.8523 12.9734 17.3172 12.6672C17.0451 12.0501 16.8006 11.493 16.5562 10.9387C15.9557 11.1757 15.7325 11.1591 15.5914 10.8787C15.4466 10.5909 15.5702 10.4185 16.2297 10.0089C16.0452 9.53945 15.8589 9.06443 15.668 8.57835C15.43 8.68165 15.264 8.76097 15.0924 8.82646C14.7816 8.94453 14.5482 8.86428 14.4394 8.60325C14.3204 8.31639 14.4606 8.12823 14.7004 7.9991C14.8978 7.89211 15.1072 7.8054 15.335 7.69841C15.1422 7.2031 14.9679 6.75483 14.7843 6.2835C14.5676 6.37574 14.3988 6.44491 14.2328 6.5187C13.9607 6.63953 13.743 6.56298 13.6102 6.30933C13.4681 6.03907 13.5908 5.83154 13.8334 5.69411C14.0169 5.58988 14.2143 5.50871 14.4375 5.40172L14.4384 5.4008ZM18.0523 13.3774C16.7102 14.1457 15.4235 14.8827 14.1295 15.6234C14.1608 15.6464 14.2152 15.6981 14.2789 15.7341C15.5139 16.424 16.832 16.9018 18.2423 16.9959C19.6351 17.089 21.0371 17.0595 22.4344 17.0807C22.4879 17.0807 22.5414 17.0494 22.6244 17.0235C22.5875 16.8529 22.5673 16.7025 22.5211 16.5596C22.1522 15.4168 21.3673 14.701 20.2318 14.3542C19.4534 14.1162 18.6574 13.9207 18.0523 13.3774ZM4.9759 2.34685C4.36068 2.92609 3.97698 3.61141 3.70211 4.37144C3.58682 4.6915 3.59789 4.935 3.87552 5.18496C4.2048 5.48104 4.48151 5.83523 4.7822 6.16267C5.13086 6.54176 5.48043 6.91993 5.8337 7.30179C7.13977 5.72455 6.74223 3.43616 4.9759 2.34777V2.34685Z" fill="black"/>
</svg>
