<svg width="31" height="12" viewBox="0 0 31 12" fill="none" xmlns="http://www.w3.org/2000/svg">
<path d="M1.33646 6.01177C0.197503 5.9005 0.0216348 5.7677 0.00608183 4.9745C-0.0226314 3.55679 -0.0130602 3.54602 1.55061 3.33187C2.27084 1.1353 4.04627 0.394743 6.13277 0.112396C6.64482 0.0430058 7.16405 0.00352516 7.68089 0.00352516C12.9234 -0.00126038 18.1672 -0.00365315 23.4098 0.0130962C24.471 0.0166854 25.5118 0.204518 26.5024 0.607699C27.6605 1.07907 28.5518 1.8316 28.9658 3.04952C29.0627 3.33426 29.2302 3.3869 29.4994 3.39408C30.4397 3.4204 30.6347 3.63455 30.6359 4.58568C30.6359 4.7448 30.6407 4.90511 30.6347 5.06423C30.612 5.65166 30.3344 5.93998 29.759 5.97588C29.5831 5.98664 29.4072 5.99382 29.2553 6.001C29.077 6.76908 28.9251 7.50725 28.7289 8.23465C28.632 8.59715 28.48 8.95009 28.3113 9.28627C27.1963 11.5103 25.1086 12.489 22.7254 11.764C19.1961 10.6884 17.167 8.21192 16.4085 4.64669C16.3176 4.22078 16.2889 3.78051 16.2219 3.27564H14.4297C14.3639 3.74582 14.328 4.21719 14.2287 4.6766C13.4714 8.18919 11.4722 10.6513 8.00032 11.7353C5.42929 12.538 3.20282 11.4398 2.17752 8.93095C1.80544 8.0181 1.6212 7.02869 1.33407 6.01296L1.33646 6.01177ZM28.3078 6.09312C26.8362 5.06902 26.8075 4.47681 28.0804 3.39408C27.8747 2.74085 27.4727 2.21564 26.8841 1.89022C26.3672 1.60548 25.8085 1.35305 25.2378 1.21666C23.472 0.797924 21.6726 0.894831 19.884 1.0384C19.3373 1.08266 18.7869 1.237 18.2665 1.42004C17.5283 1.67966 17.1563 2.23717 17.2125 3.03875C17.2472 3.53525 17.2508 4.04013 17.3561 4.52347C18.026 7.62569 19.7907 9.81747 22.8463 10.8141C24.9316 11.4948 26.6843 10.6765 27.5421 8.66296C27.8962 7.83266 28.0661 6.92461 28.309 6.09192L28.3078 6.09312ZM2.42517 6.02014C2.53883 7.10646 2.76853 8.17004 3.32485 9.13792C4.18984 10.6454 5.6243 11.2806 7.32556 10.9385C10.5522 10.29 13.5898 6.91384 13.4259 2.75162C13.4068 2.25273 13.1795 1.85912 12.756 1.61984C12.4305 1.43679 12.0752 1.27648 11.7127 1.19752C9.99948 0.821852 8.26114 0.880475 6.53475 1.03122C5.79299 1.09582 5.04645 1.31237 4.34417 1.57199C3.47679 1.89142 2.84989 2.50995 2.55797 3.40963C3.83691 4.41938 3.79503 5.10969 2.42637 6.02014H2.42517ZM17.0055 0.985757H13.6389C13.9069 1.4332 14.1557 1.84835 14.3998 2.25751H16.2398C16.5042 1.81724 16.7459 1.41765 17.0055 0.985757ZM0.977546 5.02475C1.36996 5.02475 1.70854 5.05944 2.03635 5.0092C2.18948 4.98647 2.3175 4.80103 2.45628 4.68976C2.3163 4.57371 2.18948 4.3787 2.03515 4.35597C1.69418 4.30453 1.34125 4.34042 0.977546 4.34042V5.02475ZM28.1498 4.71249C28.5746 5.27838 29.1357 4.92545 29.6345 5.02475V4.27581C29.1201 4.49356 28.5159 4.03414 28.1498 4.71249Z" fill="black"/>
</svg>
