<svg width="23" height="23" viewBox="0 0 23 23" fill="none" xmlns="http://www.w3.org/2000/svg">
<path d="M17.9747 13.4662C17.9477 14.3567 17.9108 15.1363 17.9028 15.917C17.8888 17.1978 17.8858 18.4786 17.8948 19.7594C17.8978 20.2285 17.809 20.6398 17.4765 20.9962C17.3797 21.1 17.3587 21.2927 17.3388 21.4494C17.3078 21.696 17.3278 21.9496 17.2878 22.1941C17.212 22.6533 16.8616 22.9518 16.3954 22.9878C16.2966 22.9958 16.1957 22.9908 16.0959 22.9908C12.9523 22.9908 9.80877 22.9908 6.66421 22.9908C6.53144 22.9908 6.39667 22.9988 6.2659 22.9808C5.88156 22.9289 5.55513 22.6324 5.46927 22.254C5.43633 22.1093 5.40938 21.9556 5.42036 21.8098C5.4523 21.3965 5.38542 21.0371 5.07695 20.7197C4.86033 20.4971 4.85933 20.1756 4.85933 19.8702C4.86132 18.7391 4.86532 17.6081 4.85234 16.477C4.84136 15.5137 4.80941 14.5514 4.71059 13.576C4.60876 14.0482 4.49196 14.5174 4.40911 14.9926C4.10463 16.7306 3.99382 18.4885 3.91496 20.2485C3.90098 20.557 3.85207 20.8345 3.64443 21.0801C3.56756 21.1709 3.53362 21.3147 3.52164 21.4394C3.50068 21.6541 3.52463 21.8727 3.50866 22.0873C3.47173 22.5915 3.11434 22.9578 2.60922 22.9838C2.19493 23.0047 1.77666 23.0057 1.36237 22.9838C0.861237 22.9558 0.509845 22.5835 0.47191 22.0783C0.461928 21.9456 0.463924 21.8118 0.466919 21.679C0.473907 21.4115 0.449948 21.1729 0.266266 20.9353C0.137488 20.7686 0.0995538 20.5081 0.07859 20.2844C-0.0731477 18.6393 0.0156987 16.9971 0.168435 15.356C0.360104 13.2975 0.758415 11.283 1.38932 9.3154C1.8685 7.82298 2.47345 6.38846 3.33396 5.06874C3.56856 4.70936 3.85806 4.44082 4.2384 4.24317C5.36146 3.65918 6.51746 3.15505 7.73436 2.80465C8.04383 2.71581 8.20155 2.56507 8.28541 2.2586C8.41219 1.7954 8.59887 1.34817 8.73363 0.886967C8.80751 0.634404 8.95824 0.49764 9.19184 0.409792C10.6373 -0.138261 12.0799 -0.134268 13.5254 0.407796C13.7819 0.50363 13.9257 0.670342 14.0025 0.933886C14.1333 1.38012 14.319 1.81037 14.4328 2.25959C14.5146 2.58104 14.6983 2.71082 14.9978 2.79667C16.2157 3.14506 17.3677 3.65818 18.4948 4.23318C18.8951 4.43683 19.1856 4.72334 19.4192 5.10368C20.4873 6.84667 21.23 8.72542 21.7591 10.691C22.2792 12.6217 22.5777 14.5863 22.6895 16.5848C22.7604 17.8497 22.7704 19.1105 22.6656 20.3713C22.6486 20.5769 22.5837 20.8065 22.4649 20.9683C22.3122 21.1749 22.2732 21.3796 22.2822 21.6161C22.2882 21.7819 22.2902 21.9496 22.2752 22.1143C22.2313 22.5905 21.8779 22.9548 21.4007 22.9818C20.9695 23.0057 20.5352 23.0067 20.104 22.9808C19.6298 22.9518 19.2834 22.5805 19.2415 22.1013C19.2285 21.9526 19.2315 21.8018 19.2355 21.6521C19.2425 21.4005 19.2275 21.1749 19.0368 20.9603C18.917 20.8265 18.8651 20.6009 18.8501 20.4112C18.7713 19.384 18.7543 18.3508 18.6375 17.3286C18.5067 16.1755 18.2941 15.0315 18.1134 13.8835C18.0965 13.7767 18.0455 13.6759 17.9757 13.4662H17.9747ZM10.9428 20.5759V4.66544C10.0214 4.48575 9.20681 4.13336 8.50902 3.53838C8.36227 3.4136 8.21852 3.4116 8.04782 3.47549C7.28713 3.763 6.51846 4.02754 5.76476 4.33301C5.32253 4.5117 4.90425 4.75029 4.472 4.96292C4.49795 5.10568 4.50394 5.2055 4.53389 5.29734C4.9362 6.51823 5.14084 7.78205 5.27561 9.05285C5.48325 11.0045 5.58907 12.9631 5.59206 14.9267C5.59406 16.507 5.59406 18.0872 5.59506 19.6675C5.59506 19.8003 5.58607 19.935 5.60504 20.0658C5.64797 20.3613 5.82965 20.541 6.12314 20.5889C6.22097 20.6049 6.3218 20.6069 6.42163 20.6069C7.80224 20.6079 9.18286 20.6079 10.5635 20.6069C10.6773 20.6069 10.7911 20.5889 10.9428 20.5759ZM11.7904 4.66344C11.6885 5.52695 11.7285 20.2006 11.8283 20.556C11.8572 20.568 11.8872 20.5919 11.9171 20.5919C13.4465 20.5979 14.9768 20.6089 16.5062 20.5999C16.9305 20.5969 17.1271 20.3673 17.1501 19.938C17.1591 19.7723 17.1521 19.6056 17.1521 19.4389C17.1581 16.0148 17.0902 12.5887 17.4506 9.17464C17.5873 7.88487 17.798 6.60908 18.1823 5.36722C18.2202 5.24543 18.2412 5.11766 18.2731 4.9789C17.0982 4.31904 15.8823 3.84086 14.6274 3.45153C14.4707 3.40262 14.3429 3.42458 14.2142 3.53539C13.5204 4.13635 12.7028 4.48175 11.7894 4.66344H11.7904ZM18.958 5.75056C18.925 5.76154 18.8921 5.77252 18.8591 5.7835C18.8272 5.87634 18.7903 5.96719 18.7643 6.06103C18.3101 7.71916 18.1264 9.41623 18.0615 11.1273C18.0555 11.285 18.1044 11.4557 18.1663 11.6044C18.5407 12.4959 18.7903 13.4233 18.9739 14.3697C19.3423 16.2644 19.502 18.1811 19.5689 20.1077C19.5849 20.569 19.6068 20.5999 20.0421 20.6069C20.5243 20.6139 21.0064 20.6149 21.4876 20.6069C21.8989 20.5989 21.9288 20.566 21.9418 20.1357C22.0057 18.0753 21.9787 16.0208 21.6643 13.9743C21.3219 11.7482 20.7449 9.59392 19.8335 7.53348C19.5659 6.92853 19.2505 6.34453 18.957 5.75156L18.958 5.75056ZM3.92594 5.77252C3.88901 5.77252 3.85207 5.77153 3.81413 5.77053C3.18123 6.8267 2.69706 7.95276 2.28578 9.11075C1.14974 12.3082 0.700515 15.6115 0.776384 18.9937C0.785369 19.409 0.788363 19.8242 0.808329 20.2395C0.822305 20.536 0.867227 20.5769 1.16671 20.5989C1.44822 20.6189 1.73373 20.6528 2.01225 20.6229C2.38361 20.5839 2.77493 20.6927 3.1393 20.5001C3.15128 20.4082 3.17025 20.3284 3.17224 20.2475C3.20918 18.6523 3.34095 17.066 3.57754 15.4887C3.7772 14.158 4.05073 12.8453 4.58081 11.5975C4.65568 11.4218 4.69761 11.2101 4.68064 11.0225C4.58081 9.89939 4.48497 8.77434 4.33523 7.65727C4.25038 7.02236 4.0647 6.40044 3.92494 5.77352L3.92594 5.77252ZM6.24693 21.4025C6.21598 21.4644 6.20301 21.4784 6.20201 21.4934C6.13812 22.2411 6.15209 22.257 6.88283 22.257C9.87067 22.257 12.8595 22.257 15.8473 22.257C16.3458 22.257 16.5784 22.0075 16.5451 21.5083C16.5431 21.4804 16.5142 21.4534 16.4842 21.4025H6.24793H6.24693ZM8.87339 2.85656C9.46437 3.40661 10.1402 3.73904 10.9508 3.88578V1.93416C10.4057 1.77244 9.87766 1.61571 9.3326 1.45299C9.17687 1.92717 9.02912 2.38039 8.87339 2.85656ZM13.3836 1.45199C12.8216 1.6207 12.3164 1.77144 11.8113 1.92218C11.7075 2.40534 11.7235 3.5284 11.8423 3.88179C12.6039 3.72107 13.2758 3.39164 13.8528 2.85856C13.6931 2.37939 13.5413 1.92517 13.3836 1.45199ZM1.22261 21.3965C1.21363 21.5433 1.20365 21.6391 1.20365 21.7359C1.20165 22.2271 1.22062 22.248 1.6958 22.256C1.86051 22.259 2.02622 22.257 2.19094 22.256C2.77194 22.253 2.79689 22.2281 2.77593 21.6321C2.77293 21.5552 2.74498 21.4794 2.72701 21.3965H1.22261ZM19.9722 21.4065C19.9722 21.6231 19.9722 21.7868 19.9722 21.9496C19.9722 22.1542 20.084 22.249 20.2807 22.253C20.4624 22.256 20.6441 22.256 20.8257 22.256C21.3209 22.256 21.5568 22.0098 21.5335 21.5173C21.5325 21.4884 21.5066 21.4614 21.4786 21.4065H19.9722ZM12.4292 0.922905C11.6985 0.710273 10.9718 0.66535 10.1362 0.940874C10.9788 1.18944 11.7055 1.20542 12.4292 0.922905Z" fill="black"/>
</svg>
