<svg width="19" height="20" viewBox="0 0 19 20" fill="none" xmlns="http://www.w3.org/2000/svg">
<path d="M4.78598 5.17255C4.66098 3.55149 5.03129 2.14761 6.26017 1.0742C7.09687 0.3414 8.08201 0 9.19683 0C11.1773 0 13.7647 1.73825 13.4608 5.14443C13.5717 5.15381 13.6827 5.17021 13.7936 5.17099C14.51 5.17334 15.2256 5.17099 15.942 5.17255C16.4943 5.17412 16.6131 5.2663 16.6732 5.80223C16.8779 7.63891 17.0732 9.47638 17.2709 11.3131C17.4959 13.3958 17.7201 15.4794 17.9435 17.5622C18.0092 18.17 18.0803 18.7778 18.1318 19.3871C18.1709 19.8535 18.0287 19.9988 17.5545 19.9988C11.9038 20.0004 6.25314 20.0004 0.60169 19.9988C0.0915438 19.9988 -0.0428285 19.8566 0.0110766 19.3262C0.170448 17.7598 0.34232 16.195 0.511067 14.6294C0.732937 12.5591 0.95637 10.4889 1.17902 8.41937C1.27355 7.5397 1.36496 6.65924 1.46808 5.78036C1.52745 5.27255 1.65089 5.17334 2.179 5.17177C3.0243 5.16943 3.86959 5.17177 4.7852 5.17177L4.78598 5.17255ZM0.942308 19.0418H17.2709C16.8045 14.6974 16.342 10.3842 15.8811 6.08348H13.3835C13.3077 6.52253 13.3249 6.83893 13.7397 7.13736C14.4178 7.62563 14.3053 8.68342 13.5991 9.1342C13.0116 9.50919 12.228 9.33576 11.8491 8.74514C11.4788 8.16859 11.6226 7.39282 12.214 7.03189C12.4585 6.88268 12.5249 6.7194 12.4983 6.46784C12.485 6.34284 12.485 6.21707 12.4788 6.0866H5.65081C5.58909 6.528 5.593 6.85065 6.02346 7.1397C6.62266 7.5436 6.60782 8.44359 6.08752 8.96311C5.56956 9.48028 4.73364 9.4506 4.24537 8.89826C3.761 8.34984 3.84225 7.50532 4.42505 7.06549C4.52817 6.98736 4.64302 6.92565 4.74848 6.85924V6.07723H2.33134C1.86729 10.4045 1.40636 14.7091 0.942308 19.041V19.0418ZM12.5046 5.15459C12.7046 3.4054 12.0585 2.02652 10.7265 1.30857C9.50776 0.652331 7.99451 0.803109 6.92422 1.68747C5.92424 2.51323 5.39769 4.05617 5.7469 5.15459H12.5046ZM5.20472 8.48577C5.41175 8.49515 5.61878 8.31077 5.61018 8.10453C5.60159 7.88656 5.49066 7.74047 5.25863 7.71782C5.02738 7.69516 4.85317 7.84203 4.83911 8.06859C4.82583 8.28812 4.99067 8.4764 5.20394 8.48577H5.20472ZM12.9725 8.48343C13.1889 8.49436 13.3725 8.32406 13.3725 8.10375C13.3725 7.87563 13.2553 7.74125 13.0272 7.71704C12.8022 7.6936 12.6163 7.85063 12.5999 8.06859C12.5843 8.27562 12.7616 8.47249 12.9725 8.48343Z" fill="black"/>
</svg>
